<svg width="36" height="36" viewBox="0 0 36 36" fill="none" xmlns="http://www.w3.org/2000/svg">
<path d="M1.5 18C1.5 8.8873 8.8873 1.5 18 1.5C27.1127 1.5 34.5 8.8873 34.5 18C34.5 27.1127 27.1127 34.5 18 34.5C8.8873 34.5 1.5 27.1127 1.5 18Z" stroke="#1AAC8D" stroke-width="3"/>
<path fill-rule="evenodd" clip-rule="evenodd" d="M26.4301 10.7151C27.257 11.2572 27.4486 12.312 26.8579 13.071L17.658 24.8931C17.3443 25.2963 16.8536 25.5526 16.3158 25.5944C15.778 25.6361 15.2474 25.4591 14.8644 25.1101L9.34444 20.0802C8.62327 19.423 8.61904 18.3537 9.33498 17.6917C10.0509 17.0298 11.2159 17.0259 11.9371 17.6831L15.9213 21.3135L23.8634 11.1078C24.454 10.3488 25.6032 10.173 26.4301 10.7151Z" fill="#1AAC8D"/>
</svg>
