<svg width="161" height="170" viewBox="0 0 161 170" fill="none" xmlns="http://www.w3.org/2000/svg">
<g opacity="0.1">
<path opacity="0.7" d="M108.243 22.858L96.4203 2.36462C95.5769 0.898556 94.0084 0 92.3216 0H68.6754C66.9887 0 65.428 0.906438 64.5846 2.36462L52.7536 22.858C51.9102 24.3241 51.9102 26.1212 52.7536 27.5873L64.5767 48.0806C65.4201 49.5467 66.9887 50.4453 68.6754 50.4453H92.3216C94.0084 50.4453 95.569 49.5388 96.4124 48.0806L108.236 27.5873C109.087 26.1291 109.087 24.3241 108.243 22.858Z" fill="url(#paint0_linear_91_2823)"/>
<path opacity="0.78" d="M108.243 142.092L96.4203 121.599C95.5769 120.133 94.0084 119.234 92.3216 119.234H68.6754C66.9887 119.234 65.428 120.141 64.5846 121.599L52.7536 142.092C51.9102 143.558 51.9102 145.356 52.7536 146.822L64.5767 167.315C65.4201 168.781 66.9887 169.68 68.6754 169.68H92.3216C94.0084 169.68 95.569 168.773 96.4124 167.315L108.236 146.822C109.087 145.363 109.087 143.558 108.243 142.092Z" fill="url(#paint1_linear_91_2823)"/>
<path opacity="0.5" d="M56.6536 52.6676L44.8305 32.1742C43.9871 30.7081 42.4185 29.8096 40.7318 29.8096H17.0856C15.3988 29.8096 13.8382 30.716 12.9948 32.1742L1.16379 52.6676C0.320405 54.1336 0.320405 55.9308 1.16379 57.3968L12.9869 77.8902C13.8303 79.3563 15.3988 80.2548 17.0856 80.2548H40.7318C42.4185 80.2548 43.9792 79.3484 44.8226 77.8902L56.6457 57.3968C57.497 55.9386 57.497 54.1336 56.6536 52.6676Z" fill="url(#paint2_linear_91_2823)"/>
<path opacity="0.6" d="M56.6536 112.285L44.8305 91.7914C43.9871 90.3253 42.4185 89.4268 40.7318 89.4268H17.0856C15.3988 89.4268 13.8382 90.3332 12.9948 91.7914L1.16379 112.285C0.320405 113.751 0.320405 115.548 1.16379 117.014L12.9869 137.507C13.8303 138.973 15.3988 139.872 17.0856 139.872H40.7318C42.4185 139.872 43.9792 138.966 44.8226 137.507L56.6457 117.014C57.497 115.556 57.497 113.751 56.6536 112.285Z" fill="url(#paint3_linear_91_2823)"/>
<path opacity="0.8" d="M159.837 52.6676L148.014 32.1742C147.171 30.7081 145.602 29.8096 143.915 29.8096H120.269C118.582 29.8096 117.022 30.716 116.178 32.1742L104.347 52.6676C103.504 54.1336 103.504 55.9308 104.347 57.3968L116.17 77.8902C117.014 79.3563 118.582 80.2548 120.269 80.2548H143.915C145.602 80.2548 147.163 79.3484 148.006 77.8902L159.829 57.3968C160.681 55.9386 160.681 54.1336 159.837 52.6676Z" fill="url(#paint4_linear_91_2823)"/>
<path opacity="0.6" d="M159.837 112.285L148.014 91.7914C147.171 90.3253 145.602 89.4268 143.915 89.4268H120.269C118.582 89.4268 117.022 90.3332 116.178 91.7914L104.347 112.285C103.504 113.751 103.504 115.548 104.347 117.014L116.17 137.507C117.014 138.973 118.582 139.872 120.269 139.872H143.915C145.602 139.872 147.163 138.966 148.006 137.507L159.829 117.014C160.681 115.556 160.681 113.751 159.837 112.285Z" fill="url(#paint5_linear_91_2823)"/>
</g>
<defs>
<linearGradient id="paint0_linear_91_2823" x1="108.14" y1="-5.79717e-06" x2="42.4481" y2="24.3604" gradientUnits="userSpaceOnUse">
<stop stop-color="#071B36"/>
<stop offset="1" stop-color="#1A1E43"/>
</linearGradient>
<linearGradient id="paint1_linear_91_2823" x1="108.14" y1="119.234" x2="42.4481" y2="143.595" gradientUnits="userSpaceOnUse">
<stop stop-color="#071B36"/>
<stop offset="1" stop-color="#1A1E43"/>
</linearGradient>
<linearGradient id="paint2_linear_91_2823" x1="56.5503" y1="29.8096" x2="-9.14174" y2="54.1699" gradientUnits="userSpaceOnUse">
<stop stop-color="#071B36"/>
<stop offset="1" stop-color="#1A1E43"/>
</linearGradient>
<linearGradient id="paint3_linear_91_2823" x1="56.5503" y1="89.4268" x2="-9.14174" y2="113.787" gradientUnits="userSpaceOnUse">
<stop stop-color="#071B36"/>
<stop offset="1" stop-color="#1A1E43"/>
</linearGradient>
<linearGradient id="paint4_linear_91_2823" x1="159.734" y1="29.8096" x2="94.0419" y2="54.1699" gradientUnits="userSpaceOnUse">
<stop stop-color="#071B36"/>
<stop offset="1" stop-color="#1A1E43"/>
</linearGradient>
<linearGradient id="paint5_linear_91_2823" x1="159.734" y1="89.4268" x2="94.0419" y2="113.787" gradientUnits="userSpaceOnUse">
<stop stop-color="#071B36"/>
<stop offset="1" stop-color="#1A1E43"/>
</linearGradient>
</defs>
</svg>
