<svg width="111" height="51" viewBox="0 0 111 51" fill="none" xmlns="http://www.w3.org/2000/svg">
<g opacity="0.2">
<path d="M31.1122 31.6679C30.0417 31.9548 29.2096 32.7747 28.9027 33.8598L27.9363 37.3902C27.8028 37.7841 27.4834 38.1085 27.0819 38.2161L21.3054 39.7639C20.9039 39.8715 20.4651 39.7503 20.1525 39.4758L15.962 35.3454C15.6435 35.0487 15.5241 34.6031 15.6576 34.2091L17.2214 28.5368C17.3266 28.1266 17.6461 27.8022 18.0698 27.6886L23.8464 26.1408C24.2478 26.0333 24.709 26.1485 24.9992 26.4289L27.6013 29.003C28.3814 29.773 29.5402 30.0834 30.6108 29.7965L34.7146 28.6969C35.7851 28.41 36.1602 27.044 35.3578 26.28L27.8478 18.8602C27.1705 18.206 26.2035 17.9875 25.3114 18.2265L12.8885 21.5552C11.9964 21.7943 11.2742 22.4892 11.0698 23.332L7.65604 35.6607C7.39064 36.5437 7.63539 37.4571 8.31867 38.1336L17.3828 47.0711C18.0542 47.7031 18.9765 47.9335 19.8463 47.7005L32.3138 44.3598C33.2059 44.1208 33.9281 43.4258 34.1772 42.5711L36.9712 32.3904C37.2557 31.3112 36.2762 30.332 35.2057 30.6189L31.1242 31.7125L31.1122 31.6679Z" fill="#14212A"/>
<path d="M11.4288 18.8661L15.1024 4.99991C15.2929 4.27843 16.1986 3.98785 16.7632 4.48307L21.1703 8.3065C21.4555 8.56528 21.5856 8.9614 21.4964 9.34448L19.213 17.8339C19.1401 18.1886 18.8522 18.4573 18.4941 18.5533L12.6745 20.1127C11.9358 20.3106 11.2443 19.6099 11.4288 18.8661Z" fill="#14212A"/>
</g>
<path d="M52.6458 37.9308C51.9126 37.9308 51.22 37.8696 50.5275 37.7474C49.835 37.6252 49.1833 37.4216 48.5722 37.1771C47.9612 36.9327 47.452 36.6272 47.0039 36.281L48.0223 34.0201C48.7352 34.509 49.4684 34.8959 50.2424 35.12C51.0164 35.3644 51.8107 35.4866 52.6662 35.4866C53.5827 35.4866 54.2752 35.344 54.7844 35.0385C55.2733 34.733 55.5177 34.3256 55.5177 33.8164C55.5177 33.5109 55.4158 33.2461 55.2121 33.0221C55.0085 32.7981 54.6826 32.6147 54.2549 32.4518C53.8068 32.2889 53.2161 32.1259 52.4829 31.963C51.5459 31.7797 50.7516 31.5556 50.0998 31.2908C49.448 31.0261 48.8981 30.7409 48.4908 30.3946C48.0834 30.0688 47.7779 29.6614 47.5946 29.2133C47.4113 28.7652 47.3094 28.2357 47.3094 27.645C47.3094 26.7895 47.5538 26.0359 48.0223 25.3638C48.4908 24.6917 49.1629 24.1417 50.0183 23.7547C50.8738 23.3677 51.8718 23.1641 53.0124 23.1641C53.7049 23.1641 54.3771 23.2252 55.0288 23.3677C55.6806 23.5103 56.2916 23.6936 56.8416 23.938C57.3915 24.1825 57.86 24.4676 58.2266 24.8342L57.2286 27.0951C56.5768 26.6062 55.9047 26.2192 55.2121 25.9952C54.5196 25.7508 53.8068 25.6286 53.0735 25.6286C52.2588 25.6286 51.607 25.7915 51.1182 26.1174C50.6294 26.4433 50.385 26.8914 50.385 27.4617C50.385 27.7672 50.4868 28.032 50.6701 28.256C50.8534 28.4801 51.1793 28.6634 51.607 28.8263C52.0348 28.9893 52.6458 29.1726 53.4198 29.3355C54.316 29.5188 55.1103 29.7429 55.7621 30.0077C56.4139 30.2724 56.9638 30.5576 57.3915 30.8835C57.8192 31.2094 58.1248 31.5964 58.3284 32.0241C58.5321 32.4518 58.6339 32.961 58.6339 33.5313C58.6339 34.4275 58.3895 35.2015 57.9211 35.8532C57.4526 36.505 56.7805 37.0142 55.8843 37.3605C54.9677 37.7474 53.8882 37.9308 52.6458 37.9308Z" fill="#14212A"/>
<path d="M61.0781 29.683V27.6462C61.0781 27.5851 61.1392 27.524 61.2003 27.524H68.5531C68.6142 27.524 68.6753 27.5851 68.6753 27.6462V29.683C68.6753 29.7441 68.6142 29.8052 68.5531 29.8052H61.2003C61.1189 29.8052 61.0781 29.7441 61.0781 29.683ZM68.655 35.2841V37.6264C68.3698 37.7283 68.0847 37.8097 67.7995 37.8505C67.5144 37.8912 67.2088 37.9116 66.883 37.9116C65.6202 37.9116 64.6629 37.5449 63.9907 36.8321C63.3186 36.1192 62.9927 35.1212 62.9927 33.838V25.2224C62.9927 25.1613 63.0334 25.1206 63.0742 25.1002L65.8849 24.1836C65.9664 24.1633 66.0479 24.2244 66.0479 24.3058V33.7769C66.0479 34.1842 66.1293 34.5101 66.2719 34.7342C66.4145 34.9786 66.6182 35.1415 66.8626 35.2434C67.107 35.3452 67.3718 35.386 67.6569 35.386C67.8199 35.386 67.9828 35.3656 68.1254 35.3452C68.268 35.3656 68.4513 35.3248 68.655 35.2841Z" fill="#14212A"/>
<path d="M75.967 37.9102C75.0708 37.9102 74.2968 37.6861 73.6043 37.2584C72.9118 36.8307 72.3822 36.2197 72.0156 35.4253C71.649 34.631 71.4453 33.7144 71.4453 32.6349C71.4453 31.5758 71.6286 30.6389 72.0156 29.8242C72.4026 29.0094 72.9322 28.378 73.6043 27.93C74.2764 27.4819 75.0708 27.2578 75.9466 27.2578C76.7613 27.2578 77.4946 27.4615 78.126 27.8688C78.7574 28.2762 79.1851 28.8261 79.4091 29.4983L79.1647 29.6612V27.5226H82.1792V37.7473H79.1647V35.6494L79.4091 35.6901C79.1851 36.3826 78.7574 36.9325 78.126 37.3195C77.4946 37.7269 76.7817 37.9102 75.967 37.9102ZM76.8428 35.5883C77.576 35.5883 78.1463 35.3235 78.5741 34.8143C78.9814 34.3051 79.1851 33.5718 79.1851 32.5942C79.1851 31.6165 78.9814 30.8833 78.5741 30.3741C78.1667 29.8649 77.5964 29.6001 76.8428 29.6001C76.1095 29.6001 75.5189 29.8649 75.0912 30.4148C74.6634 30.9444 74.4598 31.698 74.4598 32.6553C74.4598 33.6126 74.6634 34.3458 75.0708 34.8347C75.4985 35.3438 76.0688 35.5883 76.8428 35.5883Z" fill="#14212A"/>
<path d="M96.6214 42.106H93.5662V35.3031L93.8514 35.6901C93.6273 36.3826 93.1996 36.9325 92.5682 37.3195C91.9368 37.7065 91.2036 37.9102 90.3889 37.9102C89.4927 37.9102 88.7187 37.6861 88.0262 37.2584C87.3337 36.8307 86.8041 36.2197 86.4375 35.4253C86.0709 34.631 85.8672 33.7144 85.8672 32.6349C85.8672 31.5758 86.0505 30.6389 86.4375 29.8242C86.8245 29.0094 87.354 28.378 88.0262 27.93C88.6983 27.4819 89.4927 27.2578 90.3685 27.2578C91.1832 27.2578 91.9164 27.4615 92.5478 27.8688C93.1793 28.2762 93.607 28.8261 93.831 29.4983H93.6477L93.9125 27.5226H96.7844C96.7233 28.0114 96.6621 28.5002 96.6418 28.9891C96.6214 29.4779 96.601 29.9667 96.601 30.4556V42.106H96.6214ZM91.285 35.5883C92.0183 35.5883 92.5886 35.3235 93.0163 34.8143C93.4237 34.3051 93.6273 33.5718 93.6273 32.5942C93.6273 31.6165 93.4237 30.8833 93.0163 30.3741C92.6089 29.8649 92.0386 29.6001 91.285 29.6001C90.5518 29.6001 89.9611 29.8649 89.5334 30.4148C89.1057 30.9444 88.902 31.698 88.902 32.6553C88.902 33.6126 89.1057 34.3458 89.513 34.8347C89.9204 35.3438 90.5111 35.5883 91.285 35.5883Z" fill="#14212A"/>
<path d="M109.82 36.6666C109.332 37.0536 108.721 37.3592 108.008 37.5832C107.295 37.8072 106.582 37.9091 105.849 37.9091C104.708 37.9091 103.73 37.685 102.895 37.2573C102.06 36.8296 101.429 36.2186 100.981 35.4242C100.533 34.6299 100.309 33.6929 100.309 32.5931C100.309 31.5543 100.533 30.6174 100.96 29.8027C101.388 28.988 101.979 28.3769 102.732 27.9085C103.486 27.4604 104.341 27.2363 105.339 27.2363C106.297 27.2363 107.111 27.44 107.824 27.8677C108.517 28.2955 109.067 28.8861 109.433 29.6601C109.8 30.4341 110.004 31.3506 110.004 32.4098V32.8579H102.997L103.038 31.3506H108.171L107.376 31.982C107.397 31.1266 107.234 30.4748 106.887 30.0267C106.541 29.599 106.052 29.375 105.401 29.375C104.708 29.375 104.158 29.6194 103.771 30.1286C103.384 30.6378 103.201 31.371 103.201 32.3283C103.201 33.4689 103.425 34.304 103.873 34.8132C104.321 35.3224 105.014 35.5871 105.95 35.5871C106.48 35.5871 107.01 35.5057 107.539 35.3224C108.069 35.1391 108.537 34.8946 108.985 34.5688L109.82 36.6666Z" fill="#14212A"/>
</svg>
