<svg width="51" height="51" viewBox="0 0 51 51" fill="none" xmlns="http://www.w3.org/2000/svg">
    <g opacity="0.2">
        <path d="M31.1122 31.6679C30.0417 31.9548 29.2096 32.7747 28.9027 33.8598L27.9363 37.3902C27.8028 37.7841 27.4834 38.1085 27.0819 38.2161L21.3054 39.7639C20.9039 39.8715 20.4651 39.7503 20.1525 39.4758L15.962 35.3454C15.6435 35.0487 15.5241 34.6031 15.6576 34.2091L17.2214 28.5368C17.3266 28.1266 17.6461 27.8022 18.0698 27.6886L23.8464 26.1408C24.2478 26.0333 24.709 26.1485 24.9992 26.4289L27.6013 29.003C28.3814 29.773 29.5402 30.0834 30.6108 29.7965L34.7146 28.6969C35.7851 28.41 36.1602 27.044 35.3578 26.28L27.8478 18.8602C27.1705 18.206 26.2035 17.9875 25.3114 18.2265L12.8885 21.5552C11.9964 21.7943 11.2742 22.4892 11.0698 23.332L7.65604 35.6607C7.39064 36.5437 7.63539 37.4571 8.31867 38.1336L17.3828 47.0711C18.0542 47.7031 18.9765 47.9335 19.8463 47.7005L32.3138 44.3598C33.2059 44.1208 33.9281 43.4258 34.1772 42.5711L36.9712 32.3904C37.2557 31.3112 36.2762 30.332 35.2057 30.6189L31.1242 31.7125L31.1122 31.6679Z" fill="#14212A"/>
        <path d="M11.4288 18.8661L15.1024 4.99991C15.2929 4.27843 16.1986 3.98785 16.7632 4.48307L21.1703 8.3065C21.4555 8.56528 21.5856 8.9614 21.4964 9.34448L19.213 17.8339C19.1401 18.1886 18.8522 18.4573 18.4941 18.5533L12.6745 20.1127C11.9358 20.3106 11.2443 19.6099 11.4288 18.8661Z" fill="#14212A"/>
    </g>
</svg>
