<svg width="593" height="732" viewBox="0 0 593 732" xmlns="http://www.w3.org/2000/svg" fill="white">
<g opacity="0.3">
<path d="M462.635 458.715C446.725 462.978 434.358 475.163 429.798 491.29L415.435 543.756C413.452 549.611 408.704 554.432 402.737 556.031L316.888 579.034C310.922 580.633 304.4 578.831 299.755 574.753L237.478 513.367C232.743 508.958 230.969 502.336 232.953 496.481L256.193 412.181C257.757 406.084 262.505 401.263 268.803 399.576L354.652 376.572C360.618 374.974 367.472 376.686 371.786 380.853L410.457 419.109C422.05 430.553 439.272 435.165 455.183 430.902L516.172 414.56C532.082 410.297 537.655 389.995 525.731 378.64L414.119 268.37C404.053 258.647 389.683 255.4 376.425 258.952L191.8 308.422C178.541 311.975 167.808 322.303 164.77 334.828L114.036 518.053C110.092 531.176 113.729 544.751 123.884 554.806L258.593 687.632C268.57 697.024 282.277 700.449 295.204 696.985L480.492 647.337C493.751 643.785 504.483 633.456 508.185 620.754L549.709 469.451C553.938 453.413 539.381 438.86 523.47 443.124L462.812 459.377L462.635 458.715Z"/>
<path d="M170.127 268.435L224.723 62.3601C227.554 51.6377 241.015 47.3192 249.405 54.6791L314.902 111.502C319.141 115.347 321.075 121.235 319.748 126.928L285.813 253.095C284.73 258.367 280.452 262.36 275.129 263.786L188.64 286.961C177.662 289.902 167.385 279.49 170.127 268.435Z"/>
</g>
</svg>
